name C:\Users\u0101727\Documents\MyRepositories\upper-imu-dc\Results\main_tracking\Case_22\SHRUG01_orientations_groundFrame.mot
datacolumns 13
datarows 36
range 1.71000000 2.06000000
endheader 
time	radius_imu_[0][0]	radius_imu_[0][1]	radius_imu_[0][2]	radius_imu_[1][0]	radius_imu_[1][1]	radius_imu_[1][2]	radius_imu_[2][0]	radius_imu_[2][1]	radius_imu_[2][2]	radius_imu_x	radius_imu_y	radius_imu_z	
          1.71000000	          0.35754774	         -0.23140162	          0.90477229	         -0.33291110	          0.87358764	          0.35498568	         -0.87254215	         -0.42813307	          0.23531312	         -0.98541942	          1.13084476	          0.57439787	
          1.72000000	          0.35814104	         -0.23145455	          0.90452407	         -0.33193810	          0.87392971	          0.35505486	         -0.87266952	         -0.42740571	          0.23616152	         -0.98385076	          1.13026229	          0.57374612	
          1.73000000	          0.35735920	         -0.23211106	          0.90466505	         -0.33086109	          0.87434857	          0.35502889	         -0.87339873	         -0.42619131	          0.23565999	         -0.98479697	          1.13059303	          0.57603596	
          1.74000000	          0.35580747	         -0.23302831	          0.90504080	         -0.32971783	          0.87484162	          0.35487785	         -0.87446395	         -0.42467628	          0.23444160	         -0.98698726	          1.13147564	          0.57983181	
          1.75000000	          0.35391659	         -0.23398084	          0.90553631	         -0.32853964	          0.87539790	          0.35459867	         -0.87567388	         -0.42300293	          0.23294585	         -0.98956609	          1.13264211	          0.58415180	
          1.76000000	          0.35204690	         -0.23481728	          0.90604847	         -0.32733778	          0.87600205	          0.35421800	         -0.87687682	         -0.42128525	          0.23152924	         -0.99187007	          1.13385081	          0.58823726	
          1.77000000	          0.35054902	         -0.23543117	          0.90646982	         -0.32609378	          0.87663874	          0.35378999	         -0.87793976	         -0.41961491	          0.23053221	         -0.99329187	          1.13484759	          0.59141503	
          1.78000000	          0.34979556	         -0.23574322	          0.90667977	         -0.32475388	          0.87729611	          0.35339277	         -0.87873658	         -0.41806300	          0.23031575	         -0.99320772	          1.13534503	          0.59302504	
          1.79000000	          0.35015426	         -0.23570378	          0.90655155	         -0.32323174	          0.87796790	          0.35311983	         -0.87915484	         -0.41667265	          0.23123726	         -0.99102563	          1.13504117	          0.59247262	
          1.80000000	          0.35191874	         -0.23530275	          0.90597230	         -0.32142265	          0.87865497	          0.35306221	         -0.87911358	         -0.41544923	          0.23358352	         -0.98631443	          1.13367087	          0.58935927	
          1.81000000	          0.35517509	         -0.23459321	          0.90488490	         -0.31923052	          0.87936697	          0.35327836	         -0.87860260	         -0.41434255	          0.23743993	         -0.97903860	          1.13110924	          0.58372134	
          1.82000000	          0.35996324	         -0.23356589	          0.90325713	         -0.31660116	          0.88012547	          0.35375538	         -0.87760479	         -0.41331119	          0.24286558	         -0.96916429	          1.12730051	          0.57557366	
          1.83000000	          0.37272389	         -0.22909393	          0.89921792	         -0.31353261	          0.88096348	          0.35440183	         -0.87336946	         -0.41402817	          0.25652771	         -0.94425354	          1.11797862	          0.55112040	
          1.84000000	          0.37193747	         -0.23136494	          0.89896206	         -0.30998555	          0.88188707	          0.35522410	         -0.87496942	         -0.41078640	          0.25628706	         -0.94579930	          1.11739413	          0.55647756	
          1.85000000	          0.38895213	         -0.22589174	          0.89313446	         -0.30579929	          0.88284819	          0.35646301	         -0.86902418	         -0.41176693	          0.27430815	         -0.91491419	          1.10426639	          0.52615979	
          1.86000000	          0.40283689	         -0.22250265	          0.88781474	         -0.30112827	          0.88378047	          0.35812547	         -0.86431719	         -0.41161226	          0.28901754	         -0.89178426	          1.09257471	          0.50463746	
          1.87000000	          0.41687245	         -0.21914137	          0.88215329	         -0.29636631	          0.88469922	          0.35982538	         -0.85929295	         -0.41144181	          0.30386061	         -0.86952333	          1.08041491	          0.48397966	
          1.88000000	          0.43855177	         -0.21164359	          0.87342964	         -0.29189739	          0.88563877	          0.36116462	         -0.84998133	         -0.41334121	          0.32662024	         -0.83558155	          1.06220155	          0.44962820	
          1.89000000	          0.42709917	         -0.21940714	          0.87718117	         -0.28799328	          0.88658251	          0.36198249	         -0.85711503	         -0.40722470	          0.31547087	         -0.85394716	          1.06995973	          0.47455912	
          1.90000000	          0.44650477	         -0.21207880	          0.86928480	         -0.28439650	          0.88749090	          0.36259970	         -0.84838206	         -0.40912405	          0.33595445	         -0.82352310	          1.05375362	          0.44342830	
          1.91000000	          0.45415557	         -0.21024908	          0.86575865	         -0.28110117	          0.88830211	          0.36318246	         -0.84541401	         -0.40830711	          0.34432609	         -0.81204365	          1.04666430	          0.43356674	
          1.92000000	          0.45935641	         -0.20953790	          0.86318339	         -0.27803428	          0.88902602	          0.36377146	         -0.84361640	         -0.40709532	          0.35012108	         -0.80451689	          1.04154119	          0.42796095	
          1.93000000	          0.46274124	         -0.20974236	          0.86132380	         -0.27504703	          0.88969044	          0.36441740	         -0.84274532	         -0.40553552	          0.35400745	         -0.79988712	          1.03786956	          0.42556211	
          1.94000000	          0.46495062	         -0.21074680	          0.85988761	         -0.27191837	          0.89031714	          0.36523390	         -0.84254455	         -0.40363496	          0.35664758	         -0.79729196	          1.03504947	          0.42556749	
          1.95000000	          0.46658926	         -0.21248301	          0.85857174	         -0.26841226	          0.89091952	          0.36635674	         -0.84276291	         -0.40138930	          0.35866044	         -0.79601310	          1.03247734	          0.42733240	
          1.96000000	          0.46817490	         -0.21488164	          0.85711034	         -0.26433783	          0.89150475	          0.36789236	         -0.84317126	         -0.39880466	          0.36057880	         -0.79543742	          1.02963368	          0.43029431	
          1.97000000	          0.47011485	         -0.21781815	          0.85530537	         -0.25959722	          0.89207939	          0.36986976	         -0.84356464	         -0.39591616	          0.36283479	         -0.79499924	          1.02613993	          0.43388340	
          1.98000000	          0.47269094	         -0.22106190	          0.85305036	         -0.25422432	          0.89265880	          0.37219653	         -0.84376138	         -0.39280007	          0.36575242	         -0.79413040	          1.02180317	          0.43744819	
          1.99000000	          0.47611169	         -0.22421408	          0.85032094	         -0.24840616	          0.89327910	          0.37462893	         -0.84357101	         -0.38959017	          0.36960446	         -0.79214925	          1.01659485	          0.44012028	
          2.00000000	          0.48079548	         -0.22657021	          0.84705469	         -0.24248144	          0.89400874	          0.37676401	         -0.84263780	         -0.38654148	          0.37489629	         -0.78788296	          1.01041914	          0.44037630	
          2.01000000	          0.48812695	         -0.22681544	          0.84278516	         -0.23690303	          0.89495432	          0.37806575	         -0.84000538	         -0.38420244	          0.38311806	         -0.77876082	          1.00243693	          0.43498207	
          2.02000000	          0.49999513	         -0.22329626	          0.83674587	         -0.23217434	          0.89625724	          0.37791274	         -0.83432604	         -0.38322545	          0.39628059	         -0.76167746	          0.99131333	          0.42002028	
          2.03000000	          0.45561618	         -0.24216670	          0.85660328	         -0.22885987	          0.89807258	          0.37561791	         -0.86025407	         -0.36717971	          0.35375415	         -0.81536532	          1.02865016	          0.48854038	
          2.04000000	          0.47553617	         -0.22966382	          0.84918778	         -0.22737788	          0.90042712	          0.37085077	         -0.84980271	         -0.36943947	          0.37596519	         -0.77854997	          1.01444535	          0.44992100	
          2.05000000	          0.48888611	         -0.21860626	          0.84451268	         -0.22655620	          0.90305623	          0.36491333	         -0.84241478	         -0.36973064	          0.39196505	         -0.74967220	          1.00565455	          0.42048277	
          2.06000000	          0.49430584	         -0.21102932	          0.84328427	         -0.22558366	          0.90571294	          0.35888171	         -0.83950804	         -0.36762847	          0.40009443	         -0.73115102	          1.00336489	          0.40349624	
